<svg width="24" height="29" viewBox="0 0 24 29" fill="none" xmlns="http://www.w3.org/2000/svg">
<path d="M22.9818 0.337632C6.49798 0.343177 7.32486 0.271164 7.11544 0.468139C7.02651 0.554162 0.67049 6.70289 0.716385 6.65827C0.39433 7.05532 0.681045 6.21937 0.581815 28.3376C0.581815 28.5833 0.786502 28.7821 1.03896 28.7821H22.9818C23.2343 28.7821 23.439 28.5833 23.439 28.3376V0.782076C23.439 0.536417 23.2343 0.337632 22.9818 0.337632ZM6.98181 1.85109V6.5286H2.14655L6.98181 1.85109ZM22.5247 27.8932H1.4961V7.41749H7.43896C7.69141 7.41749 7.8961 7.21871 7.8961 6.97305V1.22652H22.5247V27.8932Z" fill="white"/>
<path d="M12.468 3.86093H19.7823C20.0347 3.86093 20.2394 3.66215 20.2394 3.41649C20.2394 3.17083 20.0347 2.97205 19.7823 2.97205H12.468C12.2156 2.97205 12.0109 3.17083 12.0109 3.41649C12.0109 3.66215 12.2156 3.86093 12.468 3.86093Z" fill="white"/>
<path d="M12.468 6.08322H19.7823C20.0347 6.08322 20.2394 5.88444 20.2394 5.63878C20.2394 5.39312 20.0347 5.19434 19.7823 5.19434H12.468C12.2156 5.19434 12.0109 5.39312 12.0109 5.63878C12.0109 5.88444 12.2156 6.08322 12.468 6.08322Z" fill="white"/>
<path d="M12.468 8.30551H16.1252C16.3776 8.30551 16.5823 8.10673 16.5823 7.86107C16.5823 7.61541 16.3776 7.41663 16.1252 7.41663H12.468C12.2156 7.41663 12.0109 7.61541 12.0109 7.86107C12.0109 8.10673 12.2156 8.30551 12.468 8.30551Z" fill="white"/>
<path d="M3.32483 9.63878C3.32483 9.88444 3.52952 10.0832 3.78197 10.0832H9.72483C9.97728 10.0832 10.182 9.88444 10.182 9.63878C10.182 9.39312 9.97728 9.19434 9.72483 9.19434H3.78197C3.52952 9.19434 3.32483 9.39312 3.32483 9.63878Z" fill="white"/>
<path d="M9.72483 11.4166H3.78197C3.52952 11.4166 3.32483 11.6154 3.32483 11.8611C3.32483 12.1067 3.52952 12.3055 3.78197 12.3055H9.72483C9.97728 12.3055 10.182 12.1067 10.182 11.8611C10.182 11.6154 9.97728 11.4166 9.72483 11.4166Z" fill="white"/>
<path d="M9.72483 13.6388H3.78197C3.52952 13.6388 3.32483 13.8376 3.32483 14.0832C3.32483 14.3289 3.52952 14.5277 3.78197 14.5277H9.72483C9.97728 14.5277 10.182 14.3289 10.182 14.0832C10.182 13.8376 9.97728 13.6388 9.72483 13.6388Z" fill="white"/>
<path d="M9.72483 15.8611H3.78197C3.52952 15.8611 3.32483 16.0599 3.32483 16.3055C3.32483 16.5512 3.52952 16.75 3.78197 16.75H9.72483C9.97728 16.75 10.182 16.5512 10.182 16.3055C10.182 16.0599 9.97728 15.8611 9.72483 15.8611Z" fill="white"/>
<path d="M7.43912 18.0831H3.78197C3.52952 18.0831 3.32483 18.2819 3.32483 18.5276C3.32483 18.7732 3.52952 18.972 3.78197 18.972H7.43912C7.69157 18.972 7.89626 18.7732 7.89626 18.5276C7.89626 18.2819 7.69157 18.0831 7.43912 18.0831Z" fill="white"/>
<path d="M9.72483 25.6388H4.23911V20.7499C4.23911 20.5042 4.03443 20.3054 3.78197 20.3054C3.52952 20.3054 3.32483 20.5042 3.32483 20.7499V26.0832C3.32483 26.3289 3.52952 26.5276 3.78197 26.5276H9.72483C9.97728 26.5276 10.182 26.3289 10.182 26.0832C10.182 25.8375 9.97728 25.6388 9.72483 25.6388Z" fill="white"/>
<path d="M6.84833 22.6579C6.66976 22.4843 6.38047 22.4843 6.2019 22.6579L5.28762 23.5468C5.10904 23.7204 5.10904 24.0017 5.28762 24.1753C5.3769 24.2621 5.49387 24.3055 5.61083 24.3055C5.72779 24.3055 5.84476 24.2621 5.93404 24.1753L6.52512 23.6006L7.11619 24.1753C7.20703 24.2638 7.33114 24.3124 7.46016 24.3051C7.58851 24.2994 7.70837 24.2417 7.79052 24.1458L10.0762 21.4791C10.2378 21.2903 10.2117 21.0099 10.0177 20.8528C9.82355 20.6961 9.53561 20.7209 9.374 20.9097L7.4086 23.2026L6.84833 22.6579Z" fill="white"/>
<path d="M15.2109 17.9686C16.9754 17.9686 18.4109 16.5728 18.4109 14.8575C18.8167 14.7987 19.7823 15.0744 19.7823 14.4131C19.7823 12.2074 17.9365 10.4131 15.668 10.4131C15.4156 10.4131 15.2109 10.6119 15.2109 10.8575V11.7464C13.4464 11.7464 12.0109 13.1423 12.0109 14.8575C12.0109 16.5728 13.4464 17.9686 15.2109 17.9686ZM16.1252 11.3337C17.5245 11.529 18.6343 12.608 18.8354 13.9686C18.737 13.9686 16.0782 13.9686 16.1252 13.9686C16.1252 13.8697 16.1252 11.1955 16.1252 11.3337ZM15.2109 12.6353C15.3141 13.756 14.9132 14.8575 15.668 14.8575H17.4966C17.4966 16.0828 16.4711 17.0798 15.2109 17.0798C13.9506 17.0798 12.9251 16.0828 12.9251 14.8575C12.9251 13.6323 13.9506 12.6353 15.2109 12.6353Z" fill="white"/>
<path d="M12.468 22.0832H19.7823C20.0347 22.0832 20.2394 21.8844 20.2394 21.6388C20.2394 21.3931 20.0347 21.1943 19.7823 21.1943H12.468C12.2156 21.1943 12.0109 21.3931 12.0109 21.6388C12.0109 21.8844 12.2156 22.0832 12.468 22.0832Z" fill="white"/>
<path d="M12.468 24.3055H19.7823C20.0347 24.3055 20.2394 24.1067 20.2394 23.8611C20.2394 23.6154 20.0347 23.4166 19.7823 23.4166H12.468C12.2156 23.4166 12.0109 23.6154 12.0109 23.8611C12.0109 24.1067 12.2156 24.3055 12.468 24.3055Z" fill="white"/>
<path d="M12.468 26.5277H19.7823C20.0347 26.5277 20.2394 26.3289 20.2394 26.0832C20.2394 25.8376 20.0347 25.6388 19.7823 25.6388H12.468C12.2156 25.6388 12.0109 25.8376 12.0109 26.0832C12.0109 26.3289 12.2156 26.5277 12.468 26.5277Z" fill="white"/>
</svg>
