<svg width="32" height="32" viewBox="0 0 32 32" fill="none" xmlns="http://www.w3.org/2000/svg">
<g clip-path="url(#clip0_17599_3904)">
<path d="M21.5 11.6825C21.141 11.6825 20.7875 11.7039 20.438 11.7415C20.475 11.3849 20.5 11.0263 20.5 10.6667C20.5 5.06514 16.014 0.507935 10.5 0.507935C4.986 0.507935 0.5 5.06514 0.5 10.6667C0.5 16.2682 4.986 20.8254 10.5 20.8254C10.854 20.8254 11.207 20.8005 11.558 20.7629C11.521 21.1175 11.5 21.4771 11.5 21.8413C11.5 27.4428 15.986 32 21.5 32C27.014 32 31.5 27.4428 31.5 21.8413C31.5 16.2397 27.014 11.6825 21.5 11.6825ZM10.5 19.8095C5.5375 19.8095 1.5 15.7079 1.5 10.6667C1.5 5.6254 5.5375 1.52381 10.5 1.52381C15.4625 1.52381 19.5 5.6254 19.5 10.6667C19.5 11.0837 19.464 11.4992 19.409 11.9096C19.048 11.9878 18.696 12.0899 18.3505 12.2067C18.446 11.7013 18.5 11.1868 18.5 10.6667C18.5 6.18565 14.911 2.53968 10.5 2.53968C6.089 2.53968 2.5 6.18565 2.5 10.6667C2.5 15.1477 6.089 18.7936 10.5 18.7936C11.012 18.7936 11.518 18.7388 12.016 18.6418C11.901 18.9928 11.801 19.3503 11.7235 19.7166C11.319 19.7724 10.9105 19.8095 10.5 19.8095ZM12.4795 17.4857C11.839 17.6772 11.1745 17.7778 10.5 17.7778C8.5545 17.7778 6.7935 16.9661 5.524 15.6607C5.615 15.0293 6.0755 14.5199 6.703 14.3909L8.5495 14.0104C8.6645 13.9769 8.7735 13.9302 8.879 13.8778L10.5 16.0884L12.1245 13.8733C12.24 13.9312 12.36 13.983 12.489 14.0201L14.297 14.3909C14.4065 14.4132 14.51 14.4513 14.6105 14.497C13.7315 15.3483 13.0085 16.3601 12.4795 17.4857ZM8 10.6667C7.7245 10.6667 7.5 10.4386 7.5 10.1587C7.5 9.87886 7.7245 9.65079 8 9.65079V10.6667ZM8.39 8.63492H8C7.8685 8.63492 7.743 8.65778 7.6215 8.69028C7.5445 8.45257 7.5 8.20419 7.5 7.95276C7.5 6.64838 8.5445 5.5873 9.8285 5.5873H11.172C12.4555 5.5873 13.5 6.64838 13.5 7.95276C13.5 8.20419 13.4555 8.45257 13.3785 8.69028C13.257 8.65778 13.1315 8.63492 13 8.63492H12.5H11.618C10.964 8.63492 10.309 8.47797 9.7235 8.18032L9.618 8.12698H9.5C9.0585 8.12698 8.665 8.32559 8.39 8.63492ZM13 9.65079C13.2755 9.65079 13.5 9.87886 13.5 10.1587C13.5 10.4386 13.2755 10.6667 13 10.6667V9.65079ZM12 10.6667C12 11.5068 11.327 12.1905 10.5 12.1905C9.673 12.1905 9 11.5068 9 10.6667V9.65079C9 9.40394 9.1745 9.1972 9.4045 9.152C10.0945 9.4786 10.857 9.65079 11.618 9.65079H12V10.6667ZM9.7305 13.0702C9.9745 13.1515 10.23 13.2063 10.5 13.2063C10.7705 13.2063 11.026 13.1515 11.27 13.0702C11.298 13.1195 11.328 13.1677 11.3605 13.2145L10.5 14.3878L9.64 13.2155C9.672 13.1683 9.702 13.12 9.7305 13.0702ZM15.4155 13.7976C15.1395 13.6036 14.829 13.4634 14.4945 13.3953L12.7245 13.0336C12.4735 12.961 12.2675 12.7903 12.1395 12.5679C12.4135 12.3236 12.639 12.0259 12.7875 11.6825H13C13.827 11.6825 14.5 10.9989 14.5 10.1587C14.5 9.83365 14.3975 9.53397 14.2265 9.28609C14.404 8.86603 14.5 8.41193 14.5 7.95276C14.5 6.08813 13.007 4.57143 11.1715 4.57143H9.828C7.993 4.57143 6.5 6.08813 6.5 7.95276C6.5 8.41244 6.596 8.86603 6.7735 9.2866C6.6025 9.53397 6.5 9.83365 6.5 10.1587C6.5 10.9989 7.173 11.6825 8 11.6825H8.212C8.3605 12.0264 8.5865 12.3241 8.8605 12.5684C8.7345 12.7898 8.5365 12.9585 8.313 13.024L6.505 13.3948C5.7285 13.5538 5.109 14.0648 4.7745 14.7449C3.9745 13.5888 3.5 12.1844 3.5 10.6667C3.5 6.7454 6.64 3.55555 10.5 3.55555C14.36 3.55555 17.5 6.7454 17.5 10.6667C17.5 11.3529 17.3995 12.0279 17.211 12.6786C16.572 12.9884 15.9715 13.3633 15.4155 13.7976ZM21.5 30.9841C16.5375 30.9841 12.5 26.8825 12.5 21.8413C12.5 16.8 16.5375 12.6984 21.5 12.6984C26.4625 12.6984 30.5 16.8 30.5 21.8413C30.5 26.8825 26.4625 30.9841 21.5 30.9841Z" fill="white"/>
<path d="M28.7806 13.8277L29.7641 13.6428C29.6981 13.2827 29.6176 12.9205 29.5246 12.567L28.5586 12.8301C28.6451 13.1577 28.7196 13.4935 28.7806 13.8277Z" fill="white"/>
<path d="M21 5.07948C21.433 5.07948 21.8205 4.88951 22.095 4.58983C24.949 6.13446 27.184 8.75694 28.2605 11.8518L29.2035 11.5135C28.035 8.15402 25.5985 5.31161 22.4905 3.65421C22.4925 3.62119 22.5 3.58919 22.5 3.55567C22.5 2.71554 21.827 2.03186 21 2.03186C20.173 2.03186 19.5 2.71554 19.5 3.55567C19.5 4.3958 20.173 5.07948 21 5.07948ZM21 3.04773C21.2755 3.04773 21.5 3.2758 21.5 3.55567C21.5 3.83554 21.2755 4.06361 21 4.06361C20.7245 4.06361 20.5 3.83554 20.5 3.55567C20.5 3.2758 20.7245 3.04773 21 3.04773Z" fill="white"/>
<path d="M3.21885 18.6805L2.23535 18.8654C2.30135 19.2256 2.38185 19.5877 2.47485 19.9412L3.44085 19.6781C3.35435 19.3505 3.27985 19.0148 3.21885 18.6805Z" fill="white"/>
<path d="M11.0004 27.4287C10.5674 27.4287 10.1799 27.6187 9.90537 27.9183C7.05187 26.3737 4.81687 23.7512 3.73988 20.6564L2.79688 20.9947C3.96537 24.3542 6.40187 27.1966 9.50987 28.854C9.50787 28.887 9.50037 28.919 9.50037 28.9525C9.50037 29.7926 10.1734 30.4763 11.0004 30.4763C11.8274 30.4763 12.5004 29.7926 12.5004 28.9525C12.5004 28.1124 11.8274 27.4287 11.0004 27.4287ZM11.0004 29.4604C10.7249 29.4604 10.5004 29.2324 10.5004 28.9525C10.5004 28.6726 10.7249 28.4446 11.0004 28.4446C11.2759 28.4446 11.5004 28.6726 11.5004 28.9525C11.5004 29.2324 11.2759 29.4604 11.0004 29.4604Z" fill="white"/>
<path d="M27.4147 17.3574C27.4142 17.3574 27.4142 17.3574 27.4147 17.3574C26.9442 16.8794 26.2942 16.6753 25.6312 16.7961C25.2382 16.8683 24.8637 17.076 24.5477 17.397L19.0002 23.0316L17.4527 21.459C17.1362 21.1385 16.7617 20.9307 16.3697 20.8591C15.7062 20.7372 15.0567 20.9419 14.5862 21.4199C14.1157 21.8979 13.9142 22.5582 14.0337 23.2317C14.1047 23.6309 14.3092 24.0114 14.6252 24.3324L17.5862 27.3409C17.9637 27.7254 18.4657 27.9367 19.0002 27.9367C19.5347 27.9367 20.0367 27.7254 20.4142 27.3414L27.3757 20.2694C27.6917 19.9484 27.8962 19.5679 27.9672 19.1687C28.0862 18.4957 27.8852 17.8354 27.4147 17.3574ZM26.9827 18.9889C26.9392 19.2342 26.7877 19.4303 26.6687 19.5512L19.7072 26.6232C19.3297 27.0072 18.6712 27.0072 18.2932 26.6232L15.3317 23.6147C15.2127 23.4933 15.0612 23.2972 15.0177 23.0519C14.9572 22.7111 15.0577 22.3784 15.2937 22.1391C15.4837 21.9456 15.7347 21.8415 16.0012 21.8415C16.0637 21.8415 16.1277 21.8471 16.1922 21.8587C16.4332 21.9029 16.6267 22.0568 16.7457 22.1777L19.0002 24.468L25.2547 18.1147C25.3742 17.9939 25.5672 17.8399 25.8087 17.7958C26.1442 17.7343 26.4717 17.8364 26.7072 18.0756C26.9427 18.3149 27.0432 18.6476 26.9827 18.9889Z" fill="white"/>
</g>
<defs>
<clipPath id="clip0_17599_3904">
<rect width="32" height="32" fill="white"/>
</clipPath>
</defs>
</svg>
