<svg width="32" height="32" viewBox="0 0 32 32" fill="none" xmlns="http://www.w3.org/2000/svg">
<path d="M22.3794 16.435C22.3797 16.9488 22.537 17.451 22.8312 17.8781C23.1255 18.3052 23.5436 18.6379 24.0326 18.8343C24.5217 19.0308 25.0597 19.082 25.5788 18.9815C26.0978 18.8811 26.5745 18.6335 26.9486 18.27C27.3227 17.9065 27.5774 17.4435 27.6805 16.9396C27.7836 16.4356 27.7304 15.9132 27.5278 15.4386C27.3251 14.9639 26.9821 14.5582 26.542 14.2728C26.1019 13.9875 25.5845 13.8352 25.0552 13.8352C24.3455 13.8361 23.6652 14.1104 23.1635 14.5978C22.6618 15.0852 22.3798 15.7459 22.3794 16.435ZM27.0434 16.435C27.0432 16.8166 26.9264 17.1896 26.7078 17.5068C26.4892 17.824 26.1787 18.0712 25.8155 18.2171C25.4522 18.363 25.0526 18.4011 24.6671 18.3265C24.2816 18.2519 23.9275 18.068 23.6496 17.7981C23.3717 17.5282 23.1825 17.1843 23.1059 16.81C23.0292 16.4357 23.0686 16.0477 23.2191 15.6951C23.3695 15.3425 23.6243 15.0412 23.9511 14.8291C24.2779 14.6171 24.6622 14.5039 25.0552 14.5038C25.5825 14.5043 26.0881 14.708 26.4609 15.07C26.8336 15.4321 27.0432 15.923 27.0434 16.435ZM30.0549 10.2282C30.1003 10.2282 30.1452 10.2195 30.1871 10.2026C30.2289 10.1857 30.267 10.161 30.299 10.1298C30.331 10.0986 30.3563 10.0615 30.3735 10.0208C30.3907 9.98006 30.3995 9.93642 30.3992 9.89239V4.63196C30.3983 3.88649 30.0929 3.17181 29.5499 2.64471C29.0069 2.11762 28.2708 1.82113 27.5029 1.82031C27.4885 1.82031 27.4741 1.82031 27.4594 1.82031C27.452 1.82031 27.445 1.82031 27.4376 1.82031H11.8373C10.4763 1.82179 9.17147 2.3473 8.209 3.28156C7.24653 4.21582 6.70502 5.48256 6.70324 6.80392V20.8404H1.94356C1.89827 20.8404 1.85341 20.8491 1.81158 20.866C1.76974 20.8828 1.73174 20.9075 1.69975 20.9387C1.66777 20.9698 1.64243 21.0068 1.62518 21.0474C1.60793 21.0881 1.59912 21.1317 1.59924 21.1757V26.4361C1.60018 27.1816 1.90563 27.8962 2.44861 28.4233C2.99158 28.9504 3.72773 29.2469 4.49556 29.2477C4.50996 29.2477 4.52436 29.2477 4.53908 29.2477C4.54644 29.2477 4.55348 29.2477 4.56084 29.2477H20.1612C21.3839 29.2419 22.5648 28.815 23.4935 28.0428C24.4222 27.2707 25.0385 26.2036 25.2325 25.0315L26.3132 26.0807C26.3613 26.1274 26.4226 26.1593 26.4894 26.1722C26.5562 26.1851 26.6254 26.1785 26.6883 26.1532C26.7512 26.128 26.805 26.0851 26.8429 26.0302C26.8807 25.9753 26.901 25.9106 26.901 25.8445V20.6745C26.9128 20.6711 26.9244 20.6677 26.9375 20.6649L28.1263 20.4052C28.3762 20.3519 28.6049 20.2298 28.7851 20.0534C28.9652 19.8771 29.0892 19.654 29.142 19.411L29.382 18.3376C29.3971 18.2649 29.4263 18.1956 29.468 18.1335L30.1192 17.1334C30.2573 16.9243 30.3301 16.681 30.3291 16.4326C30.3281 16.1843 30.2532 15.9415 30.1135 15.7335L29.5032 14.8101C29.461 14.7483 29.4313 14.6792 29.4156 14.6066L29.1461 13.4525C29.0914 13.2098 28.9656 12.9877 28.784 12.8127C28.6023 12.6378 28.3725 12.5175 28.1221 12.4664L27.0165 12.2334C26.9417 12.2184 26.8704 12.19 26.8063 12.1498L25.7765 11.5172C25.6295 11.427 25.466 11.3651 25.2949 11.3349V10.2267L30.0549 10.2282ZM29.7109 4.63196V9.5581H25.2952V4.63196C25.2958 4.0636 25.5287 3.51868 25.9426 3.11678C26.3566 2.71489 26.9178 2.48885 27.5032 2.48827C28.0886 2.48893 28.6498 2.71501 29.0637 3.11689C29.4776 3.51878 29.7103 4.06365 29.7109 4.63196ZM2.28756 26.4361V21.5099H6.70356V26.4361C6.70297 27.0044 6.47015 27.5494 6.0562 27.9513C5.64225 28.3532 5.08098 28.5792 4.49556 28.5798C3.91015 28.5792 3.34888 28.3532 2.93493 27.9513C2.52098 27.5494 2.28816 27.0044 2.28756 26.4361ZM20.1612 28.5798H6.36724C6.68821 28.3162 6.94611 27.9879 7.12297 27.6177C7.29982 27.2474 7.39138 26.8442 7.39124 26.4361V21.1757C7.39109 21.1596 7.38981 21.1437 7.3874 21.1278C7.38982 21.1121 7.39111 21.0962 7.39124 21.0803V6.80392C7.39285 5.65969 7.86184 4.56279 8.69533 3.7538C9.52882 2.94482 10.6588 2.48982 11.8373 2.48858H25.6312C25.3103 2.75214 25.0524 3.08047 24.8756 3.4507C24.6987 3.82094 24.6071 4.22416 24.6072 4.63227V9.89239C24.6073 9.90842 24.6087 9.92442 24.6114 9.94024C24.6087 9.95595 24.6073 9.97184 24.6072 9.98777V11.392C24.5118 11.4256 24.4206 11.4695 24.3352 11.5228L23.3832 12.1165C23.3195 12.1575 23.2484 12.1863 23.1736 12.2017L21.9848 12.4617C21.7349 12.5148 21.5061 12.6369 21.3259 12.8133C21.1457 12.9896 21.0218 13.2128 20.9692 13.4559L20.7292 14.5293C20.714 14.602 20.6848 14.6713 20.6431 14.7334L19.9919 15.7335C19.8538 15.9425 19.7809 16.1859 19.7819 16.4342C19.7828 16.6826 19.8576 16.9253 19.9973 17.1334L20.6095 18.057C20.6515 18.119 20.6812 18.188 20.6972 18.2605L20.965 19.4147C21.0197 19.6574 21.1454 19.8796 21.3271 20.0545C21.5088 20.2294 21.7386 20.3497 21.989 20.4008L23.0943 20.6338C23.1341 20.6419 23.173 20.6538 23.2104 20.6692V25.8445C23.2106 25.9106 23.2308 25.9751 23.2686 26.03C23.3065 26.0849 23.3602 26.1276 23.4231 26.1529C23.4859 26.1782 23.5551 26.1848 23.6218 26.1719C23.6885 26.1591 23.7498 26.1273 23.798 26.0807L24.4284 25.4689C24.1557 26.3637 23.5934 27.1494 22.8248 27.7096C22.0563 28.2699 21.1222 28.5752 20.1612 28.5798ZM25.2988 24.1507C25.2342 24.0881 25.1467 24.0529 25.0554 24.0529C24.9641 24.0529 24.8766 24.0881 24.812 24.1507L23.8988 25.0377V21.0824L24.3343 21.3499C24.5496 21.484 24.8003 21.5547 25.0561 21.5538C25.3119 21.5528 25.562 21.48 25.7762 21.3444L26.2124 21.0719V25.0377L25.2988 24.1507ZM26.4386 12.7146C26.5709 12.7967 26.7173 12.8549 26.8709 12.8864L27.9765 13.1194C28.0992 13.1425 28.212 13.2005 28.3006 13.2859C28.3893 13.3714 28.4498 13.4805 28.4744 13.5994L28.7423 14.7533C28.776 14.9021 28.837 15.0439 28.9224 15.1718L29.5352 16.0954C29.6051 16.196 29.6426 16.3144 29.643 16.4357C29.6434 16.5571 29.6067 16.6757 29.5375 16.7767L28.886 17.7768C28.8014 17.9052 28.7414 18.0474 28.709 18.1965L28.469 19.2696C28.4453 19.3887 28.3857 19.4983 28.2977 19.5844C28.2097 19.6705 28.0974 19.7293 27.9749 19.7534L26.7861 20.0131C26.6329 20.0459 26.4869 20.1052 26.3554 20.1883L25.4037 20.7826C25.3003 20.8503 25.1785 20.8865 25.0538 20.8869C24.9291 20.8872 24.8071 20.8516 24.7032 20.7845L23.6732 20.1523C23.541 20.0701 23.3947 20.0119 23.2412 19.9805L22.1356 19.7475C22.0129 19.7245 21.9001 19.6666 21.8114 19.5812C21.7227 19.4958 21.6622 19.3867 21.6376 19.2678L21.3688 18.1127C21.3352 17.9638 21.274 17.8222 21.1884 17.6945L20.5752 16.7718C20.5054 16.6713 20.4678 16.5529 20.4674 16.4316C20.4669 16.3104 20.5036 16.1918 20.5727 16.0908L21.2239 15.0907C21.3085 14.9624 21.3684 14.8203 21.4008 14.6713L21.6412 13.5979C21.6649 13.4788 21.7245 13.3692 21.8125 13.2831C21.9004 13.197 22.0128 13.1382 22.1352 13.1141L23.324 12.8544C23.4773 12.8216 23.6232 12.7623 23.7548 12.6792L24.7071 12.0855C24.8107 12.0177 24.9326 11.9812 25.0576 11.9808C25.1825 11.9803 25.3048 12.0159 25.4088 12.083L26.4386 12.7146ZM10.5509 5.36299C10.5509 5.27433 10.5872 5.1893 10.6518 5.12661C10.7163 5.06392 10.8039 5.0287 10.8952 5.0287H21.1032C21.1946 5.0287 21.2821 5.06392 21.3467 5.12661C21.4113 5.1893 21.4476 5.27433 21.4476 5.36299C21.4476 5.45165 21.4113 5.53668 21.3467 5.59937C21.2821 5.66206 21.1946 5.69728 21.1032 5.69728H10.8952C10.8039 5.69728 10.7163 5.66206 10.6518 5.59937C10.5872 5.53668 10.5509 5.45165 10.5509 5.36299ZM10.5509 8.53938C10.5509 8.49549 10.5598 8.45204 10.5771 8.4115C10.5944 8.37096 10.6198 8.33413 10.6518 8.30311C10.6838 8.27209 10.7217 8.2475 10.7635 8.23073C10.8053 8.21397 10.85 8.20536 10.8952 8.2054H21.1032C21.1493 8.20404 21.1952 8.21167 21.2382 8.22785C21.2812 8.24403 21.3204 8.26842 21.3535 8.29958C21.3866 8.33074 21.4129 8.36804 21.4308 8.40926C21.4488 8.45048 21.4581 8.49478 21.4581 8.53954C21.4581 8.58429 21.4488 8.6286 21.4308 8.66981C21.4129 8.71103 21.3866 8.74833 21.3535 8.77949C21.3204 8.81065 21.2812 8.83505 21.2382 8.85122C21.1952 8.8674 21.1493 8.87504 21.1032 8.87367H10.8952C10.8039 8.87367 10.7163 8.83845 10.6518 8.77576C10.5872 8.71307 10.5509 8.62804 10.5509 8.53938ZM10.5509 11.7161C10.5509 11.6274 10.5872 11.5424 10.6518 11.4797C10.7163 11.417 10.8039 11.3818 10.8952 11.3818H20.1247C20.216 11.3818 20.3036 11.417 20.3682 11.4797C20.4327 11.5424 20.469 11.6274 20.469 11.7161C20.469 11.8047 20.4327 11.8898 20.3682 11.9525C20.3036 12.0152 20.216 12.0504 20.1247 12.0504H10.8952C10.8039 12.0504 10.7163 12.0152 10.6518 11.9525C10.5872 11.8898 10.5509 11.8047 10.5509 11.7161ZM10.5509 14.8925C10.5509 14.8486 10.5598 14.8051 10.5771 14.7646C10.5944 14.724 10.6198 14.6872 10.6518 14.6562C10.6838 14.6252 10.7217 14.6006 10.7635 14.5838C10.8053 14.5671 10.85 14.5584 10.8952 14.5585H18.2232C18.2693 14.5571 18.3152 14.5648 18.3582 14.5809C18.4012 14.5971 18.4404 14.6215 18.4735 14.6527C18.5066 14.6838 18.5329 14.7211 18.5508 14.7623C18.5688 14.8036 18.5781 14.8479 18.5781 14.8926C18.5781 14.9374 18.5688 14.9817 18.5508 15.0229C18.5329 15.0641 18.5066 15.1014 18.4735 15.1326C18.4404 15.1637 18.4012 15.1881 18.3582 15.2043C18.3152 15.2205 18.2693 15.2281 18.2232 15.2268H10.8952C10.8039 15.2268 10.7163 15.1915 10.6518 15.1288C10.5872 15.0662 10.5509 14.9811 10.5509 14.8925ZM10.5509 18.0692C10.5509 17.9805 10.5872 17.8955 10.6518 17.8328C10.7163 17.7701 10.8039 17.7349 10.8952 17.7349H18.2232C18.2685 17.7349 18.3132 17.7435 18.355 17.7603C18.3968 17.7771 18.4347 17.8017 18.4667 17.8328C18.4987 17.8638 18.5241 17.9007 18.5414 17.9412C18.5587 17.9818 18.5676 18.0253 18.5676 18.0692C18.5676 18.1131 18.5587 18.1565 18.5414 18.1971C18.5241 18.2377 18.4987 18.2745 18.4667 18.3055C18.4347 18.3366 18.3968 18.3612 18.355 18.378C18.3132 18.3948 18.2685 18.4035 18.2232 18.4035H10.8952C10.85 18.4035 10.8053 18.3948 10.7635 18.378C10.7217 18.3612 10.6837 18.3366 10.6518 18.3055C10.6198 18.2745 10.5944 18.2377 10.5771 18.1971C10.5598 18.1565 10.5509 18.1131 10.5509 18.0692ZM10.5509 21.2456C10.5509 21.2017 10.5598 21.1582 10.5771 21.1177C10.5944 21.0771 10.6198 21.0403 10.6518 21.0093C10.6838 20.9783 10.7217 20.9537 10.7635 20.9369C10.8053 20.9201 10.85 20.9115 10.8952 20.9116H20.1247C20.1708 20.9102 20.2167 20.9178 20.2596 20.934C20.3026 20.9502 20.3418 20.9746 20.3749 21.0058C20.408 21.0369 20.4343 21.0742 20.4523 21.1154C20.4702 21.1567 20.4795 21.201 20.4795 21.2457C20.4795 21.2905 20.4702 21.3348 20.4523 21.376C20.4343 21.4172 20.408 21.4545 20.3749 21.4857C20.3418 21.5168 20.3026 21.5412 20.2596 21.5574C20.2167 21.5736 20.1708 21.5812 20.1247 21.5798H10.8952C10.8039 21.5798 10.7163 21.5446 10.6518 21.4819C10.5872 21.4192 10.5509 21.3342 10.5509 21.2456ZM21.4476 24.4223C21.4476 24.5109 21.4113 24.5959 21.3467 24.6586C21.2821 24.7213 21.1946 24.7565 21.1032 24.7565H10.8952C10.8039 24.7565 10.7163 24.7213 10.6518 24.6586C10.5872 24.5959 10.5509 24.5109 10.5509 24.4223C10.5509 24.3336 10.5872 24.2486 10.6518 24.1859C10.7163 24.1232 10.8039 24.088 10.8952 24.088H21.1032C21.1485 24.088 21.1932 24.0966 21.235 24.1134C21.2768 24.1302 21.3147 24.1548 21.3467 24.1859C21.3787 24.2169 21.404 24.2538 21.4214 24.2943C21.4387 24.3349 21.4476 24.3784 21.4476 24.4223Z" fill="white"/>
</svg>
